<svg width="70" height="72" viewBox="0 0 70 72" fill="none" xmlns="http://www.w3.org/2000/svg">
<g filter="url(#filter0_d_1642_117373)">
<rect width="69.8925" height="65" rx="16.0425" fill="url(#paint0_linear_1642_117373)"/>
</g>
<path d="M58.2265 12.066L58.356 11.5015L57.5741 11.3222L57.1092 11.2156L56.7286 11.1283L56.4252 11.3741C53.3002 13.9045 49.7258 14.5697 45.7644 13.9063L45.7643 13.9063C43.1071 13.4616 40.5684 12.6083 37.9593 11.7314C37.5344 11.5886 37.1076 11.4452 36.6782 11.3028L36.6781 11.3028C34.0022 10.4155 31.2315 9.56007 28.2959 9.32666C25.4274 9.09847 22.6914 9.61339 20.1261 11.0295L20.126 11.0295C19.7677 11.2274 19.4121 11.4829 19.183 11.8897C18.9533 12.2975 18.915 12.7424 18.9388 13.1815C19.2326 18.6733 19.4883 24.1671 19.7441 29.6639C19.823 31.3589 19.9019 33.0543 19.982 34.7499C20.0172 35.4964 20.0546 36.2432 20.0932 37.0114C20.1067 37.2818 20.1204 37.5548 20.1342 37.8314L20.1984 39.1215L21.3263 38.4919C21.4332 38.4322 21.5012 38.3924 21.5515 38.363C21.6166 38.3249 21.6523 38.304 21.7046 38.2796L21.7081 38.2779C22.0043 38.138 22.2795 38 22.544 37.8673C23.1042 37.5861 23.6167 37.329 24.1803 37.1292L58.2265 12.066ZM58.2265 12.066C58.3399 12.4999 58.2753 12.8924 58.1719 13.2097C58.1129 13.3906 58.0379 13.5577 57.9789 13.6872C57.9719 13.7027 57.9651 13.7177 57.9585 13.7321C57.9044 13.8506 57.8655 13.9359 57.8341 14.0205C56.1348 18.5928 54.1596 23.0465 51.8915 27.3681C51.8188 27.5069 51.8214 27.5648 51.8226 27.58C51.8239 27.5981 51.8326 27.664 51.9327 27.8054L51.9331 27.8061C53.8853 30.5721 56.1439 33.0468 58.7377 35.2147L58.7381 35.215C58.9811 35.4184 59.303 35.722 59.4045 36.176C59.5098 36.6471 59.3333 37.0626 59.1666 37.3688L59.166 37.3699C58.9593 37.7483 58.652 38.2093 58.2174 38.5383C55.2361 40.7996 51.8518 41.6189 48.1927 41.2709C45.4308 41.0091 42.8206 40.2048 40.2923 39.3951L40.2922 39.3951C39.8351 39.2487 39.3798 39.1015 38.9257 38.9547C36.807 38.2696 34.7137 37.5928 32.5862 37.0431C29.7398 36.3081 26.9183 36.1602 24.1806 37.1291L58.2265 12.066Z" fill="white" stroke="#0F259E" stroke-width="1.60425"/>
<path d="M13.2911 12.0797L13.2914 12.0784L14.0705 12.2571L13.4374 11.7695C13.9083 11.1581 14.5712 10.4975 15.6361 10.3812M13.2911 12.0797L20.6861 51.0319C20.2163 41.0029 19.7449 30.9749 19.2723 20.9466C19.2421 20.304 19.2125 19.6607 19.1828 19.017C19.092 17.0465 19.0009 15.0717 18.8932 13.0993C18.8469 12.245 18.4806 11.5034 17.8713 11.0036C17.2649 10.5061 16.4697 10.2902 15.6361 10.3812M13.2911 12.0797L13.2909 12.0802L13.2905 12.0821L13.2901 12.0839L13.2897 12.0857L13.2893 12.0875L13.2889 12.0893L13.2884 12.0912L13.288 12.093L13.2876 12.0948L13.2872 12.0966L13.2868 12.0984L13.2864 12.1003L13.2859 12.1021L13.2855 12.1039L13.2851 12.1057L13.2847 12.1075L13.2843 12.1094L13.2839 12.1112L13.2834 12.113L13.283 12.1148L13.2826 12.1166L13.2822 12.1185L13.2818 12.1203L13.2813 12.1221L13.2809 12.1239L13.2805 12.1257L13.2801 12.1276L13.2797 12.1294L13.2793 12.1312L13.2788 12.133L13.2784 12.1348L13.278 12.1367L13.2776 12.1385L13.2772 12.1403L13.2768 12.1421L13.2763 12.1439L13.2759 12.1458L13.2755 12.1476L13.2751 12.1494L13.2747 12.1512L13.2743 12.153L13.2738 12.1549L13.2734 12.1567L13.273 12.1585L13.2726 12.1603L13.2722 12.1621L13.2717 12.164L13.2713 12.1658L13.2709 12.1676L13.2705 12.1694L13.2701 12.1712L13.2697 12.1731L13.2692 12.1749L13.2688 12.1767L13.2684 12.1785L13.268 12.1803L13.2676 12.1822L13.2672 12.184L13.2667 12.1858L13.2663 12.1876L13.2659 12.1894L13.2655 12.1912L13.2651 12.1931L13.2647 12.1949L13.2642 12.1967L13.2638 12.1985L13.2634 12.2003L13.263 12.2022L13.2626 12.204L13.2622 12.2058L13.2617 12.2076L13.2613 12.2094L13.2609 12.2113L13.2605 12.2131L13.2601 12.2149L13.2596 12.2167L13.2592 12.2185L13.2588 12.2204L13.2584 12.2222L13.258 12.224L13.2576 12.2258L13.2571 12.2276L13.2567 12.2294L13.2563 12.2313L13.2559 12.2331L13.2555 12.2349L13.2551 12.2367L13.2546 12.2385L13.2542 12.2404L13.2538 12.2422L13.2534 12.244L13.253 12.2458L13.2526 12.2476L13.2521 12.2495L13.2517 12.2513L13.2513 12.2531L13.2509 12.2549L13.2505 12.2567L13.2501 12.2585L13.2496 12.2604L13.2492 12.2622L13.2488 12.264L13.2484 12.2658L13.248 12.2676L13.2476 12.2695L13.2471 12.2713L13.2467 12.2731L13.2463 12.2749L13.2459 12.2767L13.2455 12.2785L13.245 12.2804L13.2446 12.2822L13.2442 12.284L13.2438 12.2858L13.2434 12.2876L13.243 12.2895L13.2425 12.2913L13.2421 12.2931L13.2417 12.2949L13.2413 12.2967L13.2409 12.2985L13.2405 12.3004L13.24 12.3022L13.2396 12.304L13.2392 12.3058L13.2388 12.3076L13.2384 12.3095L13.238 12.3113L13.2375 12.3131L13.2371 12.3149L13.2367 12.3167L13.2363 12.3185L13.2359 12.3204L13.2355 12.3222L13.235 12.324L13.2346 12.3258L13.2342 12.3276L13.2338 12.3295L13.2334 12.3313L13.233 12.3331L13.2325 12.3349L13.2321 12.3367L13.2317 12.3385L13.2313 12.3404L13.2309 12.3422L13.2305 12.344L13.23 12.3458L13.2296 12.3476L13.2292 12.3495L13.2288 12.3513L13.2284 12.3531L13.228 12.3549L13.2275 12.3567L13.2271 12.3585L13.2267 12.3604L13.2263 12.3622L13.2259 12.364L13.2255 12.3658L13.225 12.3676L13.2246 12.3694L13.2242 12.3713L13.2238 12.3731L13.2234 12.3749L13.223 12.3767L13.2225 12.3785L13.2221 12.3804L13.2217 12.3822L13.2213 12.384L13.2209 12.3858L13.2205 12.3876L13.22 12.3894L13.2196 12.3913L13.2192 12.3931L13.2188 12.3949L13.2184 12.3967L13.218 12.3985L13.2175 12.4003L13.2171 12.4022L13.2167 12.404L13.2163 12.4058L13.2159 12.4076L13.2155 12.4094L13.215 12.4113L13.2146 12.4131L13.2142 12.4149L13.2138 12.4167L13.2134 12.4185L13.213 12.4203L13.2125 12.4222L13.2121 12.424L13.2117 12.4258L13.2113 12.4276L13.2109 12.4294L13.2104 12.4312L13.21 12.4331L13.2096 12.4349L13.2092 12.4367L13.2088 12.4385L13.2084 12.4403L13.2079 12.4421L13.2075 12.444L13.2071 12.4458L13.2067 12.4476L13.2063 12.4494L13.2059 12.4512L13.2054 12.4531L13.205 12.4549L13.2046 12.4567L13.2042 12.4585L13.2038 12.4603L13.2034 12.4621L13.2029 12.464L13.2025 12.4658L13.2021 12.4676L13.2017 12.4694L13.2013 12.4712L13.2009 12.473L13.2004 12.4749L13.2 12.4767L13.1996 12.4785L13.1992 12.4803L13.1988 12.4821L13.1984 12.4839L13.1979 12.4858L13.1975 12.4876L13.1971 12.4894L13.1967 12.4912L13.1963 12.493L13.1959 12.4948L13.1954 12.4967L13.195 12.4985L13.1946 12.5003L13.1942 12.5021L13.1938 12.5039L13.1934 12.5057L13.1929 12.5076L13.1925 12.5094L13.1921 12.5112L13.1917 12.513L13.1913 12.5148L13.1909 12.5167L13.1904 12.5185L13.19 12.5203L13.1896 12.5221L13.1892 12.5239L13.1888 12.5257L13.1884 12.5276L13.1879 12.5294L13.1875 12.5312L13.1871 12.533L13.1867 12.5348L13.1863 12.5366L13.1859 12.5385L13.1854 12.5403L13.185 12.5421L13.1846 12.5439L13.1842 12.5457L13.1838 12.5475L13.1834 12.5494L13.1829 12.5512L13.1825 12.553L13.1821 12.5548L13.1817 12.5566L13.1813 12.5584L13.1809 12.5603L13.1804 12.5621L13.18 12.5639L13.1796 12.5657L13.1792 12.5675L13.1788 12.5693L13.1784 12.5712L13.1779 12.573L13.1775 12.5748L13.1771 12.5766L13.1767 12.5784L13.1763 12.5803L13.1759 12.5821L13.1754 12.5839L13.175 12.5857L13.1746 12.5875L13.1742 12.5893L13.1738 12.5912L13.1734 12.593L13.1729 12.5948L13.1725 12.5966L13.1721 12.5984L13.1717 12.6002L13.1713 12.6021L13.1709 12.6039L13.1704 12.6057L13.17 12.6075L13.1696 12.6093L13.1692 12.6111L13.1688 12.613L13.1684 12.6148L13.1679 12.6166L13.1675 12.6184L13.1671 12.6202L13.1667 12.622L13.1663 12.6239L13.1659 12.6257L13.1654 12.6275L13.165 12.6293L13.1646 12.6311L13.1642 12.633L13.1638 12.6348L13.1634 12.6366L13.1629 12.6384L13.1625 12.6402L13.1621 12.642L13.1617 12.6439L13.1613 12.6457L13.1609 12.6475L13.1604 12.6493L13.16 12.6511L13.1596 12.6529L13.1592 12.6548L13.1588 12.6566L13.1584 12.6584L13.1579 12.6602L13.1575 12.662L13.1571 12.6638L13.1567 12.6657L13.1563 12.6675L13.1559 12.6693L13.1554 12.6711L13.155 12.6729L13.1546 12.6748L13.1542 12.6766L13.1538 12.6784L13.1534 12.6802L13.1529 12.682L13.1525 12.6838L13.1521 12.6857L13.1517 12.6875L13.1513 12.6893L13.1509 12.6911L13.1504 12.6929L13.15 12.6947L13.1496 12.6966L13.1492 12.6984L13.1488 12.7002L13.1484 12.702L13.1479 12.7038L13.1475 12.7056L13.1471 12.7075L13.1467 12.7093L13.1463 12.7111L13.1459 12.7129L13.1454 12.7147L13.145 12.7166L13.1446 12.7184L13.1442 12.7202L13.1438 12.722L13.1434 12.7238L13.1429 12.7256L13.1425 12.7275L13.1421 12.7293L13.1417 12.7311L13.1413 12.7329L13.1408 12.7347L13.1404 12.7365L13.14 12.7384L13.1396 12.7402L13.1392 12.742L13.1388 12.7438L13.1383 12.7456L13.1379 12.7475L13.1375 12.7493L13.1371 12.7511L13.1367 12.7529L13.1363 12.7547L13.1358 12.7565L13.1354 12.7584L13.135 12.7602L13.1346 12.762L13.1342 12.7638L13.1338 12.7656L13.1333 12.7675L13.1329 12.7693L13.1325 12.7711L13.1321 12.7729L13.1317 12.7747L13.1313 12.7765L13.1308 12.7784L13.1304 12.7802L13.13 12.782L13.1296 12.7838L13.1292 12.7856L13.1288 12.7875L13.1283 12.7893L13.1279 12.7911L13.1275 12.7929L13.1271 12.7947L13.1267 12.7965L13.1263 12.7984L13.1258 12.8002L13.1254 12.802L13.125 12.8038L13.1246 12.8056L13.1242 12.8075L13.1238 12.8093L13.1233 12.8111L13.1229 12.8129L13.1225 12.8147L13.1221 12.8165L13.1217 12.8184L13.1213 12.8202L13.1208 12.822L13.1204 12.8238L13.12 12.8256L13.1196 12.8275L13.1192 12.8293L13.1188 12.8311L13.1183 12.8329L13.1179 12.8347L13.1175 12.8365L13.1171 12.8384L13.1167 12.8402L13.1162 12.842L13.1158 12.8438L13.1154 12.8456L13.115 12.8475L13.1146 12.8493L13.1142 12.8511L13.1137 12.8529L13.1133 12.8547L13.1129 12.8566L13.1125 12.8584L13.1121 12.8602L13.1117 12.862L13.1112 12.8638L13.1108 12.8656L13.1104 12.8675L13.11 12.8693L13.1096 12.8711L13.1092 12.8729L13.1087 12.8747L13.1083 12.8766L13.1079 12.8784L13.1075 12.8802L13.1071 12.882L13.1067 12.8838L13.1062 12.8857L13.1058 12.8875L13.1054 12.8893L13.105 12.8911L13.1046 12.8929L13.1042 12.8948L13.1037 12.8966L13.1033 12.8984L13.1029 12.9002L13.1025 12.902L13.1021 12.9038L13.1016 12.9057L13.1012 12.9075L13.1008 12.9093L13.1004 12.9111L13.1 12.9129L13.0996 12.9148L13.0991 12.9166L13.0987 12.9184L13.0983 12.9202L13.0979 12.922L13.0975 12.9239L13.0971 12.9257L13.0966 12.9275L13.0962 12.9293L13.0958 12.9311L13.0954 12.933L13.095 12.9348L13.0946 12.9366L13.0941 12.9384L13.0937 12.9402L13.0933 12.9421L13.0929 12.9439L13.0925 12.9457L13.0921 12.9475L13.0916 12.9493L13.0912 12.9512L13.0908 12.953L13.0904 12.9548L13.09 12.9566L13.0895 12.9584L13.0891 12.9603L13.0887 12.9621L13.0883 12.9639L13.0879 12.9657L13.0875 12.9675L13.087 12.9694L13.0866 12.9712L13.0862 12.973L13.0858 12.9748L13.0854 12.9766L13.085 12.9785L13.0845 12.9803L13.0841 12.9821L13.0837 12.9839L13.0833 12.9857L13.0829 12.9876L13.0824 12.9894L13.082 12.9912L13.0816 12.993L13.0812 12.9948L13.0808 12.9967L13.0804 12.9985L13.0799 13.0003L13.0795 13.0021L13.0791 13.0039L13.0787 13.0058L13.0783 13.0076L13.0779 13.0094L13.0424 13.1641L13.0685 13.3206C13.0743 13.3558 13.0806 13.3883 13.0855 13.4128C13.0869 13.4203 13.0883 13.4269 13.0894 13.4329C13.0926 13.4492 13.095 13.4608 13.0973 13.4736C13.1006 13.491 13.1018 13.4998 13.1022 13.5026L13.1022 13.5036C13.4082 19.9552 13.7128 26.4075 14.0173 32.8599C14.1696 36.0859 14.3219 39.312 14.4744 42.538L14.4744 42.5381C14.5229 43.5615 14.571 44.5852 14.6192 45.6092C14.7096 47.5315 14.8001 49.4546 14.8928 51.3772L14.8928 51.3774C14.9275 52.0926 15.1754 52.7469 15.688 53.2119C16.1989 53.6753 16.8735 53.8605 17.5859 53.8356C17.6372 53.8339 17.6977 53.8326 17.7627 53.8311C17.8928 53.8282 18.0413 53.8249 18.1718 53.8179L18.1728 53.8178C18.9097 53.7772 19.5948 53.5458 20.0771 53.012C20.5595 52.4781 20.721 51.7725 20.6861 51.0323L13.2911 12.0797ZM15.6361 10.3812L15.7232 11.1786M15.6361 10.3812L15.7232 11.1786M15.7232 11.1786C17.0062 11.0384 18.0222 11.8511 18.0923 13.1428L14.0738 12.2578C14.4984 11.7068 14.9856 11.2592 15.7232 11.1786Z" fill="white" stroke="#0F259E" stroke-width="1.60425"/>
<defs>
<filter id="filter0_d_1642_117373" x="0" y="0" width="69.8926" height="71.417" filterUnits="userSpaceOnUse" color-interpolation-filters="sRGB">
<feFlood flood-opacity="0" result="BackgroundImageFix"/>
<feColorMatrix in="SourceAlpha" type="matrix" values="0 0 0 0 0 0 0 0 0 0 0 0 0 0 0 0 0 0 127 0" result="hardAlpha"/>
<feOffset dy="6.41702"/>
<feComposite in2="hardAlpha" operator="out"/>
<feColorMatrix type="matrix" values="0 0 0 0 0.0569097 0 0 0 0 0.147137 0 0 0 0 0.620833 0 0 0 1 0"/>
<feBlend mode="normal" in2="BackgroundImageFix" result="effect1_dropShadow_1642_117373"/>
<feBlend mode="normal" in="SourceGraphic" in2="effect1_dropShadow_1642_117373" result="shape"/>
</filter>
<linearGradient id="paint0_linear_1642_117373" x1="34.9462" y1="0" x2="34.9462" y2="65" gradientUnits="userSpaceOnUse">
<stop stop-color="#4765EE"/>
<stop offset="1" stop-color="#2B5ADC"/>
</linearGradient>
</defs>
</svg>
